<?xml version="1.0" encoding="utf-8"?>
<!-- Generator: Adobe Illustrator 23.0.3, SVG Export Plug-In . SVG Version: 6.00 Build 0)  -->
<svg version="1.1" id="Calque_1" xmlns="http://www.w3.org/2000/svg" xmlns:xlink="http://www.w3.org/1999/xlink" x="0px" y="0px"
	 viewBox="0 0 27.7 32" style="enable-background:new 0 0 27.7 32;" xml:space="preserve">
<style type="text/css">
	.st0{fill:#FFFFFF;}
</style>
<g>
	<g>
		<path class="st0" d="M12.2,9H6.8C5.2,9,4,10.2,4,11.8V20c0,0.6,0.4,1,1,1s1-0.4,1-1v-7h1v15c0,0.6,0.4,1,1,1s1-0.4,1-1v-9h1v9
			c0,0.6,0.4,1,1,1s1-0.4,1-1V13h1v7c0,0.6,0.4,1,1,1s1-0.4,1-1v-8.2C15,10.2,13.8,9,12.2,9z"/>
		<circle class="st0" cx="9.5" cy="5.6" r="2.4"/>
		<path class="st0" d="M16,0H3C1.3,0,0,1.3,0,3v26c0,1.7,1.3,3,3,3h13c1.7,0,3-1.3,3-3V3C19,1.3,17.7,0,16,0z M17,29
			c0,0.6-0.4,1-1,1H3c-0.6,0-1-0.4-1-1V3c0-0.6,0.4-1,1-1h13c0.6,0,1,0.4,1,1V29z"/>
		<path class="st0" d="M22.8,10H24v2c0,0.6,0.4,1,1,1s1-0.4,1-1v-2h1.2c0.2,0,0.3-0.1,0.4-0.2s0.1-0.3,0-0.4l-2.1-3.5
			c-0.1-0.2-0.3-0.3-0.5-0.3s-0.4,0.1-0.5,0.3l-2.1,3.5c-0.1,0.1-0.1,0.3,0,0.4S22.6,10,22.8,10z"/>
		<path class="st0" d="M27.6,22.2c-0.1-0.1-0.2-0.2-0.4-0.2H26v-2c0-0.6-0.4-1-1-1s-1,0.4-1,1v2h-1.2c-0.2,0-0.3,0.1-0.4,0.2
			c-0.1,0.1-0.1,0.3,0,0.4l2.1,3.5c0.1,0.2,0.3,0.3,0.5,0.3s0.4-0.1,0.5-0.3l2.1-3.5C27.7,22.5,27.7,22.4,27.6,22.2z"/>
	</g>
</g>
<text transform="matrix(1 0 0 1 0 47)" style="font-family:'Arial-BoldMT'; font-size:5px;">Created by Baboon designs</text>
<text transform="matrix(1 0 0 1 0 52)" style="font-family:'Arial-BoldMT'; font-size:5px;">from the Noun Project</text>
</svg>
