<?xml version="1.0" encoding="utf-8"?>
<!-- Generator: Adobe Illustrator 23.0.3, SVG Export Plug-In . SVG Version: 6.00 Build 0)  -->
<svg version="1.1" id="Calque_1" xmlns="http://www.w3.org/2000/svg" xmlns:xlink="http://www.w3.org/1999/xlink" x="0px" y="0px"
	 viewBox="0 0 26 26" style="enable-background:new 0 0 26 26;" xml:space="preserve">
<style type="text/css">
	.st0{fill:#FFFFFF;}
</style>
<path class="st0" d="M25,13H4V4c0-1.1,0.9-2,2-2h3v3H8C7.4,5,7,5.4,7,6s0.4,1,1,1h4c0.6,0,1-0.4,1-1s-0.4-1-1-1h-1V1
	c0-0.6-0.4-1-1-1H6C3.8,0,2,1.8,2,4v9H1c-0.6,0-1,0.4-1,1v4c0,0.5,0.4,1,1,1h1.3L4,25.3C4.2,25.7,4.6,26,5,26h16
	c0.5,0,0.8-0.3,1-0.7l1.8-6.3H25c0.5,0,1-0.5,1-1v-4C26,13.4,25.5,13,25,13z M20.3,24H5.8l-1.4-5h17.4L20.3,24z M24,17h-1H3H2v-2h22
	V17z"/>
<text transform="matrix(1 0 0 1 0 41)" style="font-family:'Arial-BoldMT'; font-size:5px;">Created by Pawinee E.</text>
<text transform="matrix(1 0 0 1 0 46)" style="font-family:'Arial-BoldMT'; font-size:5px;">from the Noun Project</text>
</svg>
