<?xml version="1.0" encoding="utf-8"?>
<!-- Generator: Adobe Illustrator 23.0.3, SVG Export Plug-In . SVG Version: 6.00 Build 0)  -->
<svg version="1.1" id="Calque_1" xmlns="http://www.w3.org/2000/svg" xmlns:xlink="http://www.w3.org/1999/xlink" x="0px" y="0px"
	 viewBox="0 0 398.1 305.6" style="enable-background:new 0 0 398.1 305.6;" xml:space="preserve">
<style type="text/css">
	.st0{fill:#FFFFFF;}
</style>
<g>
	<path class="st0" d="M351.9,214.2c9.6,0,18.4,0,27.2,0c13.3,0.1,18.9,5.8,19,19.1c0,18.4,0.1,36.8,0,55.2c-0.1,11.5-5.7,17-17.3,17
		c-121.1,0-242.1,0-363.2,0C5.7,305.5,0.2,300,0.1,288c-0.1-18.9-0.1-37.7,0-56.6c0.1-11.1,6.1-17.1,17.3-17.3
		c8.9-0.2,17.7-0.1,26.6-0.1c0.4,0,0.9-0.2,2.2-0.6c0-10.1,0.2-20.4-0.2-30.8c0-1.4-2.4-3.1-4-3.9c-17.4-8.6-26.7-22.9-26.5-41.8
		c0.1-18.7,9.8-32.6,26.7-41.1c1.7-0.9,3.9-3,3.9-4.5c0.3-20.2,0.2-40.3,0.2-61.4C36,30,26.3,30.3,16.7,30C4,29.6-4,18.2,2.1,8.3
		c2.3-3.7,7.5-5.8,11.6-8.1C15.1-0.6,17.2,0,19.1,0C139,0,258.9,0,378.9,0c1.6,0,3.2-0.1,4.8,0c7.5,0.5,13.4,5.8,14.3,13
		s-3.4,14.2-10.9,15.8c-5.9,1.2-12.1,1-18.2,1.2c-5.4,0.2-10.8,0-16.9,0c0,8.3,0,16,0,23.7c0,7.3,0.5,14.6-0.1,21.8
		c-1,11.4,1.2,18.8,12.4,26.2c27.9,18.4,23.9,60.4-6.1,75.9c-4.7,2.4-6.6,5-6.3,10.3C352.3,196.3,351.9,204.7,351.9,214.2z
		 M321.8,213.9c0-9.7-0.2-19,0.1-28.2c0.1-3.6-1-5.5-4.4-7.2c-16.8-8.5-26-22.2-25.9-41.3c0.1-18.7,9.1-32.4,25.8-40.6
		c3.4-1.7,4.4-3.6,4.4-7.3c-0.2-18.2-0.1-36.3-0.1-54.5c0-1.5-0.4-3-0.5-4.2c-35.9,0-71.4,0-107.2,0c0,19.2,0.2,37.8-0.1,56.4
		c-0.1,5,0.8,8.3,6.1,10.3c3.9,1.5,7.4,4.4,10.5,7.4c22.8,22.1,17.3,58.6-10.9,73.5c-2.1,1.1-5.2,3.2-5.3,5
		c-0.5,10.1-0.2,20.3-0.2,30.8C250.1,213.9,285.4,213.9,321.8,213.9z M76.3,213.7c36.4,0,71.9,0,107.7,0c0-9.6-0.2-18.6,0.1-27.7
		c0.1-3.9-1.2-5.9-4.8-7.7c-16.6-8.4-25.7-22.1-25.8-40.7c0-18.9,9.1-32.8,26.1-41.2c3.4-1.7,4.5-3.6,4.4-7.2
		c-0.2-18.2-0.1-36.3-0.1-54.5c0-1.5-0.4-3-0.6-4.4c-35.8,0-71.1,0-107.1,0c0,20.7-0.1,41.1,0.2,61.4c0,1.4,2,3.3,3.5,4.1
		c17,8.8,26.5,22.4,26.5,41.7c0,19-9.5,32.5-26.2,41.2c-1.8,0.9-3.7,3.4-3.8,5.2C76.1,193.8,76.3,203.6,76.3,213.7z M87.3,137.6
		c-0.1-14.3-12-25.9-26.2-25.7c-14,0.2-25.4,11.7-25.5,25.7c-0.1,14.3,11.6,26,25.9,26C75.8,163.7,87.4,151.9,87.3,137.6z
		 M225,137.7c0-14.3-11.8-25.9-26.1-25.8c-14,0.1-25.5,11.6-25.6,25.6c-0.1,14.3,11.5,26.1,25.8,26.1C213.3,163.7,225,152,225,137.7
		z M336.9,111.9c-14.3-0.1-26,11.6-26,25.9c0,14,11.4,25.6,25.4,25.9c14.3,0.2,26.2-11.3,26.4-25.6
		C362.8,123.8,351.2,112,336.9,111.9z"/>
</g>
<text transform="matrix(1 0 0 1 -56.921 423.7773)" style="font-family:'Arial-BoldMT'; font-size:5px;">Created by SBTS</text>
<text transform="matrix(1 0 0 1 -56.921 428.7773)" style="font-family:'Arial-BoldMT'; font-size:5px;">from the Noun Project</text>
</svg>
