<?xml version="1.0" encoding="utf-8"?>
<!-- Generator: Adobe Illustrator 23.0.3, SVG Export Plug-In . SVG Version: 6.00 Build 0)  -->
<svg version="1.1" id="Calque_1" xmlns="http://www.w3.org/2000/svg" xmlns:xlink="http://www.w3.org/1999/xlink" x="0px" y="0px"
	 viewBox="0 0 508 508" style="enable-background:new 0 0 508 508;" xml:space="preserve">
<style type="text/css">
	.st0{fill:#FFFFFF;}
</style>
<g>
	<path class="st0" d="M457.2,0H50.8C22.8,0,0,22.8,0,50.8v406.4c0,28,22.8,50.8,50.8,50.8h406.4c28,0,50.8-22.8,50.8-50.8V50.8
		C508,22.8,485.2,0,457.2,0z M317.4,257.3c-10.5-6-23.7-3.7-31.7,5.4L115.5,457.2H50.8V50.8h406.4v286.1L317.4,257.3z"/>
	<path class="st0" d="M152.4,127c-28.1,0-50.8,22.7-50.8,50.8s22.7,50.8,50.8,50.8s50.8-22.7,50.8-50.8
		C203.2,149.8,180.5,127,152.4,127z"/>
</g>
<text transform="matrix(1 0 0 1 -2 525)" style="font-family:'Arial-BoldMT'; font-size:5px;">Created by ProSymbols</text>
<text transform="matrix(1 0 0 1 -2 530)" style="font-family:'Arial-BoldMT'; font-size:5px;">from the Noun Project</text>
</svg>
