<?xml version="1.0" encoding="utf-8"?>
<!-- Generator: Adobe Illustrator 23.0.3, SVG Export Plug-In . SVG Version: 6.00 Build 0)  -->
<svg version="1.1" id="Calque_1" xmlns="http://www.w3.org/2000/svg" xmlns:xlink="http://www.w3.org/1999/xlink" x="0px" y="0px"
	 viewBox="0 0 48 68" style="enable-background:new 0 0 48 68;" xml:space="preserve">
<style type="text/css">
	.st0{fill:#FFFFFF;}
</style>
<path class="st0" d="M24,0c13.3,0,24,10.7,24,24v42c0,1.1-0.9,2-2,2H2c-1.1,0-2-0.9-2-2V24C0,10.7,10.7,0,24,0z M4,54h5v-8
	c0-1.1,0.9-2,2-2h7v-8c0-1.1,0.9-2,2-2h7v-8c0-1.1,0.9-2,2-2h15c0-11-9-20-20-20S4,13,4,24V54z M4,58v6h40v-6H4z M13,48v6h31v-6H13z
	 M22,38v6h22v-6H22z M31,28v6h13v-6H31z"/>
<text transform="matrix(1 0 0 1 0 83)" style="font-family:'Arial-BoldMT'; font-size:5px;">Created by Andrejs Kirma</text>
<text transform="matrix(1 0 0 1 0 88)" style="font-family:'Arial-BoldMT'; font-size:5px;">from the Noun Project</text>
</svg>
