<?xml version="1.0" encoding="utf-8"?>
<!-- Generator: Adobe Illustrator 23.0.3, SVG Export Plug-In . SVG Version: 6.00 Build 0)  -->
<svg version="1.1" id="Calque_1" xmlns="http://www.w3.org/2000/svg" xmlns:xlink="http://www.w3.org/1999/xlink" x="0px" y="0px"
	 viewBox="0 0 90 78" style="enable-background:new 0 0 90 78;" xml:space="preserve">
<style type="text/css">
	.st0{fill:#FFFFFF;}
</style>
<path class="st0" d="M84,0H6C2.7,0,0,2.7,0,6v9c0,1.7,1.3,3,3,3h3v57c0,1.7,1.3,3,3,3h12c1.7,0,3-1.3,3-3V51c0-11.6,9.4-21,21-21
	s21,9.4,21,21v24c0,1.7,1.3,3,3,3h12c1.7,0,3-1.3,3-3V18h3c1.7,0,3-1.3,3-3V6C90,2.7,87.3,0,84,0z M78,72h-6V51
	c0-14.9-12.1-27-27-27S18,36.1,18,51v21h-6V18h66V72z M84,12H6V6h78V12z"/>
<path class="st0" d="M54.3,45c-1.5-0.2-2.2,0.6-3.2,1.6c-0.3-4.2-1.5-8.6-4.8-10.3c-1.5-0.7-3.2-0.2-4,1.3C39.6,42.8,30,46.9,30,57
	c0,8.3,6.7,15,15,15c5.7,0,10.7-2.8,13.2-7.5c2.9-5.3,2.2-12-1.7-18.1C56,45.6,55.2,45.1,54.3,45z M53,61.6c-1.5,2.8-4.4,4.4-8,4.4
	c-5,0-9-4-9-9c0-5.5,4.8-8.4,8.8-12.7c0.5,2.3,0.6,5.8,0.2,9.3c-0.1,1.3,0.5,2.5,1.7,3c1.2,0.6,2.5,0.3,3.4-0.6l3.1-3.1
	C54.4,56.1,54.3,59.1,53,61.6z"/>
<text transform="matrix(1 0 0 1 -5 104)" style="font-family:'Arial-BoldMT'; font-size:5px;">Created by Ayub Irawan</text>
<text transform="matrix(1 0 0 1 -5 109)" style="font-family:'Arial-BoldMT'; font-size:5px;">from the Noun Project</text>
</svg>
