<?xml version="1.0" encoding="utf-8"?>
<!-- Generator: Adobe Illustrator 23.0.3, SVG Export Plug-In . SVG Version: 6.00 Build 0)  -->
<svg version="1.1"
	 id="Calque_1" xmlns:cc="http://creativecommons.org/ns#" xmlns:dc="http://purl.org/dc/elements/1.1/" xmlns:inkscape="http://www.inkscape.org/namespaces/inkscape" xmlns:rdf="http://www.w3.org/1999/02/22-rdf-syntax-ns#" xmlns:sodipodi="http://sodipodi.sourceforge.net/DTD/sodipodi-0.dtd" xmlns:svg="http://www.w3.org/2000/svg"
	 xmlns="http://www.w3.org/2000/svg" xmlns:xlink="http://www.w3.org/1999/xlink" x="0px" y="0px" viewBox="0 0 96 61"
	 style="enable-background:new 0 0 96 61;" xml:space="preserve">
<style type="text/css">
	.st0{fill:#FFFFFF;}
</style>
<g transform="translate(0,-952.36218)">
	<path class="st0" d="M23,952.4c-3.3,0-6,1.8-7.5,4c-1.5,2.2-2.3,4.7-3,7.2c-0.8,2.8-1.2,4.9-1.4,6.5c-0.2,1.6-0.5,3.1,1.1,4.7
		c1.6,1.3,3.3,1.3,5,0.4c2.2,1.7,3.9,3.1,6.1,3.1c2.8,0,4.7-1.7,5.8-3.1c1.5,0.9,3.6,0.7,4.8-0.5c1.6-1.6,1.3-3.1,1.1-4.7
		c-0.2-1.6-0.6-3.7-1.4-6.5c-0.7-2.4-1.4-5-2.9-7.2C29,953.9,25.5,952.4,23,952.4L23,952.4z M73,952.4c-3.3,0-6,1.8-7.5,4
		c-1.5,2.2-2.3,4.7-3,7.2c-0.8,2.8-1.2,4.9-1.4,6.5c-0.2,1.6-0.5,3.1,1.1,4.7c1.6,1.3,3.3,1.3,5,0.4c2.2,1.7,3.9,3.1,6.1,3.1
		c2.8,0,4.7-1.7,5.8-3.1c1.5,0.9,3.6,0.7,4.8-0.5c1.6-1.6,1.3-3.1,1.1-4.7c-0.2-1.6-0.6-3.7-1.4-6.5c-0.7-2.4-1.4-5-2.9-7.2
		C79,953.9,75.5,952.4,73,952.4L73,952.4z M23,958.4c1.5,0,1.8,0.3,2.6,1.4c0.8,1.1,1.5,3.1,2.1,5.4c0.4,1.6,0.5,2.3,0.7,3.3
		c-1.1-0.3-2,0.4-2.7,1.3c-0.7,1.2-1.6,2.3-2.6,2.7c-1.6-0.4-2.1-1.9-3.1-2.9c-1-0.8-1.5-1.2-2.6-1.1c0.2-1,0.3-1.7,0.7-3.2
		c0.7-2.3,1.3-4.3,2.1-5.4C21.4,958.7,22,958.4,23,958.4L23,958.4z M73,958.4c1.5,0,1.8,0.3,2.6,1.4c0.8,1.1,1.5,3.1,2.1,5.4
		c0.4,1.6,0.5,2.3,0.7,3.3c-1.1-0.3-2,0.4-2.7,1.3c-0.7,1.2-1.6,2.3-2.6,2.7c-1.6-0.4-2.1-1.9-3.1-2.9c-1-0.8-1.5-1.2-2.6-1.1
		c0.2-1,0.3-1.7,0.7-3.2c0.7-2.3,1.3-4.3,2.1-5.4C71.4,958.7,72,958.4,73,958.4L73,958.4z M48,961.1c-5.9,0-10.8,5.5-10.8,12.2
		c0,6.7,4.9,12.2,10.8,12.2c5.9,0,10.8-5.5,10.8-12.2C58.9,966.7,54,961.1,48,961.1z M48,967.6c2.9,0,5.2,2.6,5.2,5.8
		c0,3.3-2.3,5.8-5.2,5.8c-2.9,0-5.2-2.5-5.2-5.8C42.9,970.1,45.1,967.6,48,967.6z M23,980.4c-5.4,0-10.5,1-14.7,3.2
		c-4.2,2.2-7.5,5.7-8.1,10.4c0,1.5-0.2,3.1-0.2,4.3c0.1,4,2.6,6.6,6.2,7.4c2,0.5,4.4,0.6,7.7,0.6c2.8,0.1,5.8,0.1,8.2,0
		c-0.2-2-0.1-4.2,0-6c-2.7,0-5.4,0.1-8.1,0c-2.2-0.1-4.5,0-6.6-0.5c-1.5-0.3-1.4-0.7-1.5-1.6c0-0.8,0.1-2.1,0.1-3.6
		c0.3-2.3,1.9-4.2,4.9-5.8c3-1.6,7.4-2.5,11.9-2.5c4.3,0,8.3,0.8,11.3,2.2c2.5-0.9,5.2-1.5,7.9-1.8c-1.3-1.3-2.8-2.4-4.5-3.2
		C32.7,981.5,27.4,980.4,23,980.4z M73,980.4c-5.4,0-10.5,1-14.7,3.2c-1.7,0.9-3.2,1.9-4.5,3.2c2.7,0.3,5.4,1,7.9,1.8
		c3-1.4,7-2.2,11.3-2.2c4.6,0,8.9,0.9,12,2.5c3,1.6,4.6,3.5,4.9,5.8c0,1.3,0.1,2.4,0.1,3.2c0,1.4-0.8,1.6-1.7,1.9
		c-1.2,0.3-3.3,0.6-6.4,0.5c-2.8,0-5.7,0.1-8.1,0.1c0.1,2.1,0.3,4.1,0.1,6c2.7,0,5.3-0.1,8-0.1c0,0,0,0,0.1,0c3.4,0,5.9-0.2,7.9-0.8
		c3.8-1.2,6-3.7,6.1-7.6c0-1.4-0.1-2.7-0.1-3.9c-0.6-4.7-4-8.2-8.2-10.4C82.7,981.5,77.4,980.4,73,980.4z M48,987.4
		c-5.4,0-11.2,1-15.9,3.1c-4.6,2.1-8.9,6-9,10.8c0,1.3-0.1,2.6-0.1,4.1c0.3,4.4,3.4,6.6,7.1,7.3c2.2,0.4,5,0.6,8.8,0.6
		c6.3,0.2,12.7-0.1,18.1-0.1c3-0.1,6.2-0.1,8.9-0.6c4-0.8,6.9-3.1,7.1-7.3c0.1-1.4-0.1-2.7-0.1-4.1c-0.4-5.5-4.7-8.9-9-10.8
		C58.6,988.6,52.9,987.4,48,987.4L48,987.4z M48,993.4c4.6,0,9.8,1,13.5,2.6c2.5,1.2,4.9,2.7,5.4,5.3c0,1.7,0.1,3,0.1,3.8
		c0,1.4-1.5,1.5-2.2,1.6c-1.6,0.3-4.1,0.5-7.7,0.5c-6.2,0-12.6,0.3-17.9,0.1c-2.6-0.1-5.3,0-7.9-0.5c-1.7-0.2-2.1-0.7-2.3-1.7
		c0-0.8,0.1-2.1,0.1-3.8c0.5-2.8,3.2-4.3,5.4-5.3C39.1,994.4,43.9,993.4,48,993.4L48,993.4z"/>
</g>
<text transform="matrix(1 0 0 1 -2 95.5)" style="font-family:'Arial-BoldMT'; font-size:5px;">Created by arif fajar yulianto</text>
<text transform="matrix(1 0 0 1 -2 100.5)" style="font-family:'Arial-BoldMT'; font-size:5px;">from the Noun Project</text>
</svg>
