<?xml version="1.0" encoding="utf-8"?>
<!-- Generator: Adobe Illustrator 23.0.3, SVG Export Plug-In . SVG Version: 6.00 Build 0)  -->
<svg version="1.1" id="Calque_1" xmlns="http://www.w3.org/2000/svg" xmlns:xlink="http://www.w3.org/1999/xlink" x="0px" y="0px"
	 viewBox="0 0 24 19" style="enable-background:new 0 0 24 19;" xml:space="preserve">
<style type="text/css">
	.st0{fill:#FFFFFF;}
</style>
<title>cooking</title>
<g>
	<path class="st0" d="M23,14h-1c-0.2-4.4-3.1-8.2-7.3-9.6c0.8-1.5,0.2-3.3-1.2-4.1C12-0.4,10.2,0.1,9.4,1.6c-0.5,0.9-0.5,2,0,2.8
		C5.2,5.8,2.3,9.6,2.1,14H1c-0.6,0-1,0.4-1,1s0.4,1,1,1h22c0.6,0,1-0.4,1-1S23.6,14,23,14z M11,3c0-0.6,0.4-1,1-1c0.6,0,1,0.4,1,1
		s-0.4,1-1,1C11.4,4,11,3.6,11,3z M12,6c4.1,0,7.5,3.5,8,8H4.1C4.5,9.5,7.9,6,12,6z"/>
	<path class="st0" d="M21,17H3c-0.6,0-1,0.4-1,1s0.4,1,1,1h18c0.6,0,1-0.4,1-1S21.6,17,21,17z"/>
</g>
<text transform="matrix(1 0 0 1 -4 40.0255)" style="font-family:'Arial-BoldMT'; font-size:5px;">Created by Kawalan Icon</text>
<text transform="matrix(1 0 0 1 -4 45.0255)" style="font-family:'Arial-BoldMT'; font-size:5px;">from the Noun Project</text>
</svg>
