<?xml version="1.0" encoding="utf-8"?>
<!-- Generator: Adobe Illustrator 23.0.3, SVG Export Plug-In . SVG Version: 6.00 Build 0)  -->
<svg version="1.1" id="Calque_1" xmlns="http://www.w3.org/2000/svg" xmlns:xlink="http://www.w3.org/1999/xlink" x="0px" y="0px"
	 viewBox="0 0 80 86" style="enable-background:new 0 0 80 86;" xml:space="preserve">
<style type="text/css">
	.st0{fill-rule:evenodd;clip-rule:evenodd;fill:#FFFFFF;}
	.st1{fill:#FFFFFF;}
</style>
<path class="st0" d="M30.2,19.1c2.9-0.6,5.8,1.2,6.4,4.1l4.5,20.1h22.7c1.9,0,3.7,1,4.7,2.7l10.8,18.9c1.5,2.6,0.6,5.9-2,7.4
	c-2.6,1.5-5.9,0.6-7.4-2l-9.2-16.2H36.8c-2.5,0-4.7-1.8-5.3-4.2l-5.4-24.3C25.5,22.7,27.3,19.8,30.2,19.1z"/>
<path class="st0" d="M28.7,32.5c0-3,2.4-5.4,5.4-5.4h10.8c3,0,5.4,2.4,5.4,5.4s-2.4,5.4-5.4,5.4H34.1C31.1,37.9,28.7,35.5,28.7,32.5
	z"/>
<circle class="st1" cx="29" cy="8" r="8"/>
<path class="st0" d="M23.1,37c-0.6,0.2-1.2,0.5-1.7,0.8c-6.3,3.3-10.6,9.9-10.6,17.6c0,11,8.7,19.8,19.3,19.8
	c8.8,0,16.3-6,18.6-14.3L59,63.8C55.5,76.5,43.9,86,30.1,86C13.4,86,0,72.2,0,55.5c0-11.8,6.6-22.1,16.4-27.2
	c0.9-0.5,1.8-0.9,2.7-1.3L23.1,37z"/>
<text transform="matrix(1 0 0 1 -10 108)" style="font-family:'Arial-BoldMT'; font-size:5px;">Created by Florent Lenormand</text>
<text transform="matrix(1 0 0 1 -10 113)" style="font-family:'Arial-BoldMT'; font-size:5px;">from the Noun Project</text>
</svg>
