<?xml version="1.0" encoding="utf-8"?>
<!-- Generator: Adobe Illustrator 23.0.3, SVG Export Plug-In . SVG Version: 6.00 Build 0)  -->
<svg version="1.1"
	 id="Calque_1" xmlns:cc="http://creativecommons.org/ns#" xmlns:dc="http://purl.org/dc/elements/1.1/" xmlns:inkscape="http://www.inkscape.org/namespaces/inkscape" xmlns:rdf="http://www.w3.org/1999/02/22-rdf-syntax-ns#" xmlns:sodipodi="http://sodipodi.sourceforge.net/DTD/sodipodi-0.dtd" xmlns:svg="http://www.w3.org/2000/svg"
	 xmlns="http://www.w3.org/2000/svg" xmlns:xlink="http://www.w3.org/1999/xlink" x="0px" y="0px" viewBox="0 0 84 68"
	 style="enable-background:new 0 0 84 68;" xml:space="preserve">
<style type="text/css">
	.st0{fill:#FFFFFF;}
</style>
<g transform="translate(0,-952.36218)">
	<path class="st0" d="M2.8,952.4c-1.6,0.1-2.9,1.6-2.8,3.2c0.1,1.6,1.6,2.9,3.1,2.8h3v52.9c0,1.9,0.2,3.8,1.7,5.3
		c1.5,1.5,3.4,1.8,5.3,1.8c0,1.1,1.8,2,4,2s4-0.9,4-2H63c0,1.1,1.8,2,4,2s4-0.9,4-2h0.1c1.8,0,3.7-0.3,5.1-1.8
		c1.4-1.4,1.7-3.3,1.7-5.1v-53.1h3c1.6,0,3-1.4,3-3c0-1.6-1.5-3-3-3C54.9,952.4,28.8,952.4,2.8,952.4z M12.1,958.4H72v14H12.1V958.4
		z M42.1,961.4c-2.2,0-4,0.9-4,2s1.8,2,4,2c2.2,0,4-0.9,4-2S44.3,961.4,42.1,961.4z M12.1,978.4H72v14H12.1L12.1,978.4z M42.1,981.4
		c-2.2,0-4,0.9-4,2c0,1.1,1.8,2,4,2c2.2,0,4-0.9,4-2C46.1,982.3,44.3,981.4,42.1,981.4z M12.1,998.4h26.9v14H13.1
		c-1.1,0.1-0.9-0.4-1-1.1L12.1,998.4L12.1,998.4z M45,998.4H72v13.1c0,0.9-0.2,0.8-0.9,0.9H45C45,1007.7,45,1003,45,998.4L45,998.4z
		 M26.1,1000.4c-2.2,0-4,0.9-4,2c0,1.1,1.8,2,4,2c2.2,0,4-0.9,4-2C30.1,1001.3,28.3,1000.4,26.1,1000.4z M58,1000.4
		c-2.2,0-4,0.9-4,2c0,1.1,1.8,2,4,2c2.2,0,4-0.9,4-2C62,1001.3,60.2,1000.4,58,1000.4z"/>
</g>
<text transform="matrix(1 0 0 1 -8 99)" style="font-family:'Arial-BoldMT'; font-size:5px;">Created by art shop</text>
<text transform="matrix(1 0 0 1 -8 104)" style="font-family:'Arial-BoldMT'; font-size:5px;">from the Noun Project</text>
</svg>
