<?xml version="1.0" encoding="utf-8"?>
<!-- Generator: Adobe Illustrator 23.0.3, SVG Export Plug-In . SVG Version: 6.00 Build 0)  -->
<svg version="1.1" id="Calque_1" xmlns="http://www.w3.org/2000/svg" xmlns:xlink="http://www.w3.org/1999/xlink" x="0px" y="0px"
	 viewBox="0 0 423.1 512" style="enable-background:new 0 0 423.1 512;" xml:space="preserve">
<style type="text/css">
	.st0{fill:#FFFFFF;}
</style>
<g>
	<path class="st0" d="M211.5,0C94.7,0,0,94.7,0,211.5C0,372.2,211.5,512,211.5,512s211.5-139.8,211.5-300.5
		C423.1,94.7,328.4,0,211.5,0z M211.5,375.9c-90.8,0-164.4-73.6-164.4-164.4c0-90.8,73.6-164.4,164.4-164.4s164.4,73.6,164.4,164.4
		C375.9,302.3,302.3,375.9,211.5,375.9z"/>
	<path class="st0" d="M227.7,117.8l-73.6-0.1v196.3h39.3v-49.2h34.3c40.6,0,73.5-32.9,73.5-73.4
		C301.2,150.7,268.3,117.8,227.7,117.8z M251.9,215.4c-6.5,6.5-15.1,10-24.2,10h-34.3V157l34.3,0.1h0h0c9.1,0,17.7,3.6,24.2,10
		c6.5,6.5,10,15.1,10,24.2C261.9,200.4,258.4,209,251.9,215.4z"/>
</g>
<text transform="matrix(1 0 0 1 -44.467 527)" style="font-family:'Arial-BoldMT'; font-size:5px;">Created by lastspark</text>
<text transform="matrix(1 0 0 1 -44.467 532)" style="font-family:'Arial-BoldMT'; font-size:5px;">from the Noun Project</text>
</svg>
