<?xml version="1.0" encoding="utf-8"?>
<!-- Generator: Adobe Illustrator 23.0.3, SVG Export Plug-In . SVG Version: 6.00 Build 0)  -->
<svg version="1.1" id="Calque_1" xmlns="http://www.w3.org/2000/svg" xmlns:xlink="http://www.w3.org/1999/xlink" x="0px" y="0px"
	 viewBox="0 0 75.1 98" style="enable-background:new 0 0 75.1 98;" xml:space="preserve">
<style type="text/css">
	.st0{fill:#FFFFFF;}
</style>
<title>Artboard 14</title>
<path class="st0" d="M18.2,61.1c-1.5,1.6-2.3,2.4-4,2.4s-2.5-0.8-4-2.4s-3.7-4-7.7-4c-1.4,0-2.5,1.1-2.5,2.5s1.1,2.5,2.5,2.5
	c1.7,0,2.5,0.8,4,2.4c1.5,1.6,3.7,4,7.7,4s6.1-2.3,7.7-4c1.5-1.7,2.3-2.4,4-2.4s2.5,0.8,4,2.4c1.5,1.6,3.7,4,7.7,4s6.1-2.3,7.7-4
	c1.5-1.7,2.3-2.4,4-2.4s2.5,0.8,4,2.4c1.5,1.6,3.7,4,7.7,4s6.1-2.3,7.7-4c1.5-1.7,2.3-2.4,4-2.4c1.4,0,2.5-1.1,2.5-2.5
	s-1.1-2.5-2.5-2.5c-4,0-6.1,2.3-7.7,4s-2.3,2.4-4,2.4s-2.5-0.8-4-2.4s-3.7-4-7.7-4s-6.1,2.3-7.7,4s-2.3,2.4-4,2.4s-2.5-0.8-4-2.4
	s-3.7-4-7.7-4S19.7,59.4,18.2,61.1z"/>
<path class="st0" d="M2.5,76.8c1.7,0,2.5,0.8,4,2.4s3.7,4,7.7,4s6.1-2.3,7.7-4s2.3-2.4,4-2.4s2.5,0.8,4,2.4s3.7,4,7.7,4
	s6.1-2.3,7.7-4s2.3-2.4,4-2.4s2.5,0.8,4,2.4s3.7,4,7.7,4s6.1-2.3,7.7-4s2.3-2.4,4-2.4c1.4,0,2.5-1.1,2.5-2.5s-1.1-2.5-2.5-2.5
	c-4,0-6.1,2.3-7.7,4s-2.3,2.4-4,2.4s-2.5-0.8-4-2.4s-3.7-4-7.7-4s-6.1,2.3-7.7,4s-2.3,2.4-4,2.4s-2.5-0.8-4-2.4s-3.7-4-7.7-4
	s-6.1,2.3-7.7,4s-2.3,2.4-4,2.4s-2.5-0.8-4-2.4s-3.7-4-7.7-4C1.1,71.8,0,73,0,74.3S1.1,76.8,2.5,76.8z"/>
<path class="st0" d="M2.5,91.6c1.7,0,2.5,0.8,4,2.4s3.7,4,7.7,4s6.1-2.3,7.7-4s2.3-2.4,4-2.4s2.5,0.8,4,2.4s3.6,4,7.6,4
	s6.1-2.3,7.7-4s2.3-2.4,4-2.4s2.5,0.8,4,2.4s3.7,4,7.7,4s6.1-2.3,7.7-4s2.3-2.4,4-2.4c1.4,0,2.5-1.1,2.5-2.5s-1.1-2.5-2.5-2.5
	c-4,0-6.1,2.3-7.7,4S62.5,93,60.8,93s-2.5-0.8-4-2.4s-3.7-4-7.7-4s-6.1,2.3-7.7,4S39.2,93,37.5,93s-2.5-0.8-4-2.4s-3.7-4-7.7-4
	s-6.1,2.3-7.7,4s-2.2,2.4-4,2.4s-2.5-0.8-4-2.4s-3.7-4-7.7-4c-1.4,0-2.5,1.1-2.5,2.5S1.1,91.6,2.5,91.6L2.5,91.6z"/>
<path class="st0" d="M30.2,5c1.3,0,2.4,0.7,3,1.8c0.6,1.2,2.1,1.8,3.3,1.1c1.2-0.6,1.8-2.1,1.1-3.3l0,0c-2-4.1-7-5.8-11.1-3.8
	C23.8,2.2,22,5.1,22,8.3v41.6c0,1.4,1.1,2.5,2.5,2.5s2.5-1.1,2.5-2.5v-4.5h22.4v4.5c0,1.4,1.1,2.5,2.5,2.5c1.4,0,2.5-1.1,2.5-2.5
	c0,0,0,0,0,0V8.3c0-1.8,1.5-3.2,3.4-3.2c1.2,0,2.3,0.7,2.8,1.8c0.6,1.2,2.1,1.8,3.3,1.1c1.2-0.6,1.8-2.1,1.1-3.3
	C62.9,0.6,58-1.1,53.9,1c-2.8,1.4-4.5,4.2-4.6,7.3v7.4H27V8.3C27,6.5,28.4,5,30.2,5C30.2,5,30.2,5,30.2,5z M27,40.4V33h22.4v7.3
	L27,40.4z M49.3,20.7V28H27v-7.3H49.3z"/>
<text transform="matrix(1 0 0 1 -12.5 114.008)" style="font-family:'Arial-BoldMT'; font-size:5px;">Created by Gregor Cresnar</text>
<text transform="matrix(1 0 0 1 -12.5 119.008)" style="font-family:'Arial-BoldMT'; font-size:5px;">from the Noun Project</text>
</svg>
