<?xml version="1.0" encoding="utf-8"?>
<!-- Generator: Adobe Illustrator 23.0.3, SVG Export Plug-In . SVG Version: 6.00 Build 0)  -->
<svg version="1.1" id="Calque_1" xmlns="http://www.w3.org/2000/svg" xmlns:xlink="http://www.w3.org/1999/xlink" x="0px" y="0px"
	 viewBox="0 0 90 84.5" style="enable-background:new 0 0 90 84.5;" xml:space="preserve">
<style type="text/css">
	.st0{fill:#FFFFFF;}
</style>
<g>
	<path class="st0" d="M88,84.5l-6-13h2c1.5,0,2.8-1.1,3-2.6l3-23c0.2-1.6-0.9-3.1-2.6-3.4c-1.6-0.2-3.1,0.9-3.4,2.6l-1.5,11.4
		c0,0,0,0,0,0h-18c-0.8,0-1.5,0.7-1.5,1.5s0.7,1.5,1.5,1.5h7.8l2.7,6H63c-1.7,0-3,1.3-3,3s1.3,3,3,3h2.3l-5.3,13h4.3l5.3-13h8l6,13
		H88z M79.3,65.5l-2.7-6h5.5l-0.8,6H79.3z"/>
	<path class="st0" d="M89.6,26C83,14.7,66.8,7.3,48,6.6V3.5c0-1.7-1.3-3-3-3s-3,1.3-3,3v3.1C23.2,7.3,7,14.7,0.4,26
		c-0.5,0.9-0.6,2.1,0,3s1.5,1.5,2.6,1.5h39v17H24c-1.7,0-3,1.3-3,3c0,1.7,1.3,3,3,3h18v31h6v-31h18c1.7,0,3-1.3,3-3c0-1.7-1.3-3-3-3
		H48v-17h39c1.1,0,2.1-0.6,2.6-1.5S90.1,26.9,89.6,26z M9.2,24.5c7.4-7.3,21-12,35.8-12s28.4,4.7,35.8,12H9.2z"/>
	<path class="st0" d="M24.7,71.5H27c1.7,0,3-1.3,3-3s-1.3-3-3-3h-5.9c0,0,0,0,0,0h-6l2.7-6h7.8c0.8,0,1.5-0.7,1.5-1.5
		s-0.7-1.5-1.5-1.5h-18c0,0,0,0,0,0L6,45.1c-0.2-1.6-1.7-2.8-3.4-2.6C1,42.7-0.2,44.2,0,45.9l3,23c0.2,1.5,1.5,2.6,3,2.6h2l-6,13
		h4.4l6-13h8l5.3,13H30L24.7,71.5z M10.7,65.5H8.6l-0.8-6h5.5L10.7,65.5z"/>
</g>
<text transform="matrix(1 0 0 1 -5.0006 104.494)" style="font-family:'Arial-BoldMT'; font-size:5px;">Created by David Carrero</text>
<text transform="matrix(1 0 0 1 -5.0006 109.494)" style="font-family:'Arial-BoldMT'; font-size:5px;">from the Noun Project</text>
</svg>
