<?xml version="1.0" encoding="utf-8"?>
<!-- Generator: Adobe Illustrator 23.0.3, SVG Export Plug-In . SVG Version: 6.00 Build 0)  -->
<svg version="1.1" id="Calque_1" xmlns="http://www.w3.org/2000/svg" xmlns:xlink="http://www.w3.org/1999/xlink" x="0px" y="0px"
	 viewBox="0 0 90 90" style="enable-background:new 0 0 90 90;" xml:space="preserve">
<style type="text/css">
	.st0{fill:#FFFFFF;}
</style>
<path class="st0" d="M82.5,37.5H45c-4.1,0-7.5,3.4-7.5,7.5c0,0.9,0.2,1.7,0.4,2.5h-5.3l2.2-30.4c3-1,5.1-3.8,5.1-7.1
	c0-4.1-3.4-7.5-7.5-7.5H25C25,1.1,23.9,0,22.5,0h-5C16.1,0,15,1.1,15,2.5H7.5C3.4,2.5,0,5.9,0,10c0,3.3,2.2,6.1,5.1,7.1l2.4,33.1
	c0.1,1.3,1.2,2.3,2.5,2.3h8.5L25,65.6v1.9h-7.5c-1.4,0-2.5,1.1-2.5,2.5v12.5c0,1.4,1.1,2.5,2.5,2.5H25v2.5c0,1.4,1.1,2.5,2.5,2.5H60
	c1.2,0,2.2-0.8,2.4-1.9l2.2-9.6C76,74.6,84.1,64.1,84.9,52.1c3-1,5.1-3.8,5.1-7.1C90,40.9,86.6,37.5,82.5,37.5z M7.5,12.5
	C6.1,12.5,5,11.4,5,10s1.1-2.5,2.5-2.5h25c1.4,0,2.5,1.1,2.5,2.5s-1.1,2.5-2.5,2.5H7.5z M12.3,47.5l-2.1-30h19.6l-2.1,30H20H12.3z
	 M61.8,74.1c-0.9,0.2-1.6,1-1.8,1.9l-2,9H30v-2.5c0-1.4-1.1-2.5-2.5-2.5H20v-7.5h7.5c1.4,0,2.5-1.1,2.5-2.5v-5
	c0-0.4-0.1-0.8-0.3-1.1L24,52.5h6h15h34.9C78.9,62.6,71.7,71.3,61.8,74.1z M82.5,47.5H45c-1.4,0-2.5-1.1-2.5-2.5s1.1-2.5,2.5-2.5
	h37.5c1.4,0,2.5,1.1,2.5,2.5S83.9,47.5,82.5,47.5z"/>
<text transform="matrix(1 0 0 1 -5 110)" style="font-family:'Arial-BoldMT'; font-size:5px;">Created by Arthur Shlain</text>
<text transform="matrix(1 0 0 1 -5 115)" style="font-family:'Arial-BoldMT'; font-size:5px;">from the Noun Project</text>
</svg>
